<svg width="177" height="17" viewBox="0 0 177 17" fill="none" xmlns="http://www.w3.org/2000/svg">
<g clip-path="url(#clip0_107_99)">
<path d="M0 16.7859V1.12656H2.8436L4.41713 6.15108C4.57449 6.62424 4.70936 7.07487 4.82176 7.51423C4.93415 7.95359 5.01283 8.2803 5.05779 8.49435L5.30505 7.51423C5.40621 7.07487 5.52985 6.62424 5.67596 6.15108L7.17082 1.12656H10.0257V16.7859H7.86767V11.5136C7.86767 10.8376 7.86767 10.0828 7.86767 9.26042C7.86767 8.43802 7.98006 7.61562 8.05874 6.75943C8.13741 5.90323 8.19361 5.12589 8.27229 4.35982C8.35097 3.59375 8.40716 2.91781 8.46336 2.35452L6.14802 9.98143H3.90011L1.56229 2.36579C1.62973 2.91781 1.70841 3.57122 1.77584 4.30349C1.84328 5.03577 1.91072 5.82437 1.96692 6.65803C2.02311 7.4917 2.07931 8.32536 2.12427 9.15903C2.16923 9.99269 2.18047 10.7813 2.18047 11.5136V16.7859H0Z" fill="#66FF66"/>
<path d="M13.1726 16.7859V14.6455H17.3088V7.08614H13.7121V4.97945H19.5567V14.6455H23.3444V16.7859H13.1726ZM18.2079 2.94035C17.7723 2.96138 17.3443 2.82103 17.0053 2.54605C16.8576 2.41087 16.7409 2.24518 16.6632 2.06041C16.5856 1.87563 16.5489 1.67617 16.5557 1.4758C16.5421 1.26631 16.5754 1.05642 16.6532 0.861492C16.731 0.666569 16.8513 0.491545 17.0053 0.349228C17.3506 0.0903273 17.778 -0.0338069 18.2079 -9.42964e-06C18.6432 -0.0189442 19.0706 0.121169 19.4105 0.394291C19.5645 0.536608 19.6848 0.711632 19.7626 0.906555C19.8404 1.10148 19.8737 1.31137 19.8601 1.52087C19.8669 1.72124 19.8302 1.92069 19.7526 2.10547C19.675 2.29024 19.5583 2.45594 19.4105 2.59111C19.0643 2.84816 18.6376 2.97209 18.2079 2.94035Z" fill="#66FF66"/>
<path d="M30.8075 17C29.9231 17.0204 29.046 16.8353 28.2449 16.4592C27.5326 16.113 26.9411 15.5594 26.5477 14.8708C26.1369 14.1113 25.9352 13.2558 25.9633 12.3923V9.33928C25.939 8.48693 26.1407 7.64337 26.5477 6.89462C26.9384 6.20661 27.531 5.65591 28.2449 5.31742C29.0438 4.93352 29.9218 4.74437 30.8075 4.76539C32.0306 4.71865 33.2289 5.11902 34.1794 5.89197C34.6081 6.27529 34.9501 6.74595 35.1827 7.27246C35.4153 7.79897 35.5331 8.36919 35.5281 8.94498H33.2465C33.2503 8.65151 33.1944 8.36034 33.0824 8.08919C32.9703 7.81804 32.8043 7.57259 32.5946 7.36778C32.0978 6.9445 31.4587 6.72695 30.8075 6.75943C30.1243 6.72462 29.4547 6.95915 28.9418 7.41284C28.7043 7.65754 28.5207 7.94936 28.4026 8.26951C28.2845 8.58966 28.2346 8.93104 28.2561 9.27169V12.3923C28.2346 12.7329 28.2845 13.0743 28.4026 13.3945C28.5207 13.7146 28.7043 14.0064 28.9418 14.2511C29.1921 14.482 29.4864 14.6599 29.807 14.7741C30.1276 14.8883 30.4679 14.9365 30.8075 14.9158C31.4455 14.9768 32.0831 14.7959 32.5946 14.4089C32.8121 14.2094 32.987 13.9678 33.1087 13.6986C33.2304 13.4295 33.2964 13.1384 33.3027 12.8429H35.618C35.6229 13.4171 35.505 13.9856 35.2723 14.5102C35.0397 15.0349 34.6977 15.5035 34.2693 15.8847C33.2937 16.6747 32.0596 17.0723 30.8075 17Z" fill="#66FF66"/>
<path d="M38.9448 16.7859V1.12656H41.2602V4.97944V7.23259H41.8109L41.2602 7.77334C41.2283 7.35986 41.2862 6.94438 41.4298 6.55544C41.5733 6.1665 41.7992 5.81333 42.0919 5.52019C42.7294 4.95993 43.5607 4.67273 44.4072 4.72033C44.9286 4.69668 45.449 4.78496 45.9336 4.97925C46.4182 5.17354 46.8558 5.46936 47.2171 5.8469C47.9447 6.68724 48.3194 7.77741 48.2624 8.88865V16.7747H45.9246V9.19282C45.9459 8.8663 45.9023 8.53877 45.7962 8.22931C45.69 7.91986 45.5235 7.63465 45.3064 7.39031C45.0826 7.17298 44.8161 7.00468 44.524 6.89607C44.2318 6.78747 43.9203 6.74093 43.6092 6.75943C43.2912 6.74358 42.9734 6.79564 42.6769 6.91217C42.3805 7.0287 42.1121 7.20704 41.8896 7.43537C41.4363 7.97022 41.2104 8.66185 41.2602 9.36181V16.7859H38.9448Z" fill="#66FF66"/>
<path d="M55.2422 17C54.1915 17.0595 53.1567 16.7218 52.3424 16.0537C51.9889 15.72 51.7115 15.3137 51.5292 14.8626C51.3468 14.4115 51.2638 13.9262 51.2859 13.44C51.2601 12.9454 51.3481 12.4515 51.543 11.9964C51.7378 11.5413 52.0344 11.1371 52.4098 10.8151C53.2898 10.1301 54.3886 9.78973 55.5007 9.8575H58.7826V8.73093C58.7991 8.44998 58.7532 8.16888 58.6482 7.90784C58.5433 7.64681 58.3819 7.41235 58.1757 7.22132C57.6904 6.8629 57.0895 6.69826 56.4898 6.75943C55.9246 6.73503 55.365 6.88016 54.8825 7.17626C54.6797 7.29418 54.5065 7.45697 54.3759 7.65221C54.2454 7.84745 54.1611 8.06998 54.1295 8.30283H51.8816C51.9319 7.80065 52.0883 7.31494 52.3402 6.87793C52.5921 6.44092 52.9338 6.06259 53.3427 5.76804C54.2872 5.1105 55.4193 4.77839 56.5685 4.82172C57.784 4.74753 58.9843 5.1245 59.9403 5.8807C60.3449 6.24232 60.6638 6.68991 60.8738 7.1908C61.0838 7.6917 61.1796 8.23326 61.1542 8.77599V16.7859H58.9063V14.6454H58.4454L58.8276 14.2173C58.8405 14.6126 58.7584 15.0053 58.5882 15.3621C58.418 15.7189 58.1648 16.0295 57.8498 16.2677C57.0853 16.7942 56.1683 17.0517 55.2422 17ZM55.9278 15.22C56.6553 15.27 57.3778 15.0671 57.9734 14.6454C58.2287 14.4604 58.4356 14.2162 58.5765 13.9338C58.7174 13.6513 58.7881 13.3389 58.7826 13.0232V11.4234H55.5457C55.0235 11.3953 54.5111 11.5733 54.1182 11.9191C53.9398 12.0942 53.8004 12.3052 53.7093 12.5382C53.6183 12.7713 53.5776 13.0211 53.59 13.271C53.581 13.5416 53.6329 13.8107 53.7418 14.0584C53.8508 14.3061 54.014 14.526 54.2194 14.7018C54.7076 15.076 55.3145 15.2601 55.9278 15.22Z" fill="#66FF66"/>
<path d="M69.2692 17C68.3966 17.0218 67.5321 16.8284 66.7515 16.4367C66.0555 16.0784 65.4806 15.5218 65.0993 14.837C64.6882 14.0898 64.4862 13.2451 64.5149 12.3923V9.33928C64.4901 8.49763 64.692 7.66482 65.0993 6.92842C65.478 6.24432 66.0539 5.6907 66.7515 5.33995C67.5311 4.9444 68.3957 4.74708 69.2692 4.76539C70.1468 4.74191 71.0163 4.93945 71.7981 5.33995C72.4958 5.6907 73.0716 6.24432 73.4503 6.92842C73.8526 7.6668 74.0541 8.49821 74.0348 9.33928V11.446H66.7515V12.3923C66.7251 12.7608 66.772 13.1309 66.8898 13.481C67.0075 13.8311 67.1936 14.1542 67.4372 14.4314C67.6876 14.6703 67.9846 14.8546 68.3096 14.9729C68.6345 15.0912 68.9804 15.1408 69.3254 15.1186C69.8906 15.1417 70.4521 15.0175 70.9551 14.7581C71.1526 14.6532 71.3244 14.506 71.4585 14.3268C71.5926 14.1476 71.6855 13.941 71.7307 13.7217H73.9786C73.9007 14.2062 73.7225 14.6691 73.4554 15.0805C73.1882 15.4918 72.8381 15.8425 72.4275 16.11C71.4921 16.7274 70.3885 17.0384 69.2692 17ZM71.7981 10.049V9.31675C71.8426 8.59494 71.6138 7.88287 71.1574 7.32272C70.6407 6.8748 69.9804 6.6283 69.2973 6.6283C68.6142 6.6283 67.9539 6.8748 67.4372 7.32272C66.9703 7.88647 66.737 8.60823 66.7853 9.33928V9.88004H72.0116L71.7981 10.049Z" fill="#66FF66"/>
<path d="M83.8132 16.7859C83.1533 16.8011 82.5002 16.65 81.9137 16.3466C81.3786 16.0576 80.9348 15.6245 80.6324 15.0961C80.3171 14.5161 80.1583 13.8637 80.1716 13.2034V3.22198H76.3164V1.12656H82.4869V13.2034C82.4699 13.4084 82.4961 13.6146 82.5639 13.8087C82.6317 14.0028 82.7395 14.1804 82.8803 14.33C83.0158 14.4682 83.1791 14.5758 83.3593 14.6457C83.5395 14.7157 83.7326 14.7463 83.9256 14.7356H87.5672V16.7859H83.8132Z" fill="#66FF66"/>
<path d="M89.9163 16.7859V1.12656H92.7711L94.4121 6.13981C94.5694 6.61297 94.7043 7.0636 94.8167 7.50296C94.9291 7.94233 95.0078 8.26903 95.0527 8.48308C95.0527 8.26903 95.1988 7.94233 95.3 7.50296C95.4011 7.0636 95.536 6.61297 95.6709 6.13981L97.1433 1.12656H100.032V16.7859H97.7839V11.5136C97.7839 10.8376 97.7839 10.0828 97.7839 9.26042C97.7839 8.43802 97.8738 7.61562 97.9413 6.77069C98.0087 5.92576 98.0874 5.13716 98.1548 4.37109C98.2223 3.60502 98.2897 2.92907 98.3459 2.36579L96.1092 9.98143H93.8613L91.5348 2.36579C91.6022 2.91781 91.6696 3.57122 91.7483 4.30349C91.827 5.03577 91.8832 5.82437 91.9394 6.65803C91.9956 7.4917 92.0405 8.32536 92.0855 9.15903C92.1304 9.99269 92.1642 10.7813 92.1642 11.5136V16.7859H89.9163Z" fill="white"/>
<path d="M106.652 17C105.601 17.0595 104.566 16.7218 103.752 16.0537C103.386 15.7261 103.096 15.3226 102.902 14.8712C102.708 14.4198 102.615 13.9314 102.628 13.44C102.603 12.9455 102.692 12.4519 102.886 11.9969C103.081 11.5419 103.377 11.1377 103.752 10.8151C104.632 10.1301 105.731 9.78973 106.843 9.85751H110.147V8.73093C110.164 8.44998 110.118 8.16888 110.013 7.90784C109.908 7.64681 109.747 7.41235 109.54 7.22132C109.067 6.87363 108.484 6.70955 107.899 6.75943C107.334 6.73503 106.775 6.88016 106.292 7.17626C106.089 7.29418 105.916 7.45697 105.786 7.65221C105.655 7.84745 105.571 8.06998 105.539 8.30283H103.291C103.342 7.80065 103.498 7.31494 103.75 6.87793C104.002 6.44092 104.344 6.06259 104.752 5.76804C105.697 5.1105 106.829 4.77839 107.978 4.82172C109.194 4.74753 110.394 5.1245 111.35 5.8807C111.755 6.24232 112.073 6.68991 112.283 7.1908C112.493 7.6917 112.589 8.23327 112.564 8.77599V16.7859H110.316V14.6454H109.934L110.316 14.2173C110.329 14.6126 110.247 15.0053 110.077 15.3621C109.906 15.7189 109.653 16.0295 109.338 16.2677C108.552 16.8114 107.604 17.0697 106.652 17ZM107.337 15.22C108.065 15.27 108.787 15.0671 109.383 14.6454C109.638 14.45 109.841 14.1947 109.975 13.9019C110.108 13.6092 110.167 13.288 110.147 12.9668V11.4234H106.955C106.433 11.3953 105.921 11.5733 105.528 11.9191C105.349 12.0942 105.21 12.3052 105.119 12.5382C105.028 12.7713 104.987 13.0211 105 13.271C104.993 13.5434 105.049 13.8136 105.162 14.0614C105.275 14.3092 105.442 14.5282 105.652 14.7018C106.134 15.0708 106.732 15.2546 107.337 15.22Z" fill="white"/>
<path d="M121.971 16.786C121.516 16.8171 121.059 16.7553 120.628 16.6043C120.197 16.4533 119.801 16.2161 119.465 15.9072C119.153 15.585 118.912 15.201 118.758 14.7801C118.603 14.3591 118.537 13.9103 118.566 13.4626V7.08615H115.306V4.97946H118.566V1.65607H120.87V5.03579H125.478V7.08615H120.87V13.5189C120.856 13.6751 120.874 13.8326 120.924 13.9812C120.975 14.1298 121.055 14.2663 121.161 14.3819C121.267 14.4975 121.395 14.5897 121.539 14.6525C121.682 14.7154 121.837 14.7475 121.994 14.7469H125.208V16.786H121.971Z" fill="white"/>
<path d="M128.906 16.7859V1.12656H131.221V4.97944V7.23259H131.783L131.221 7.77334C131.192 7.36012 131.252 6.94548 131.395 6.55699C131.539 6.16849 131.763 5.81506 132.053 5.52019C132.692 4.96204 133.522 4.67515 134.368 4.72033C134.89 4.69595 135.411 4.78389 135.895 4.97822C136.38 5.17256 136.817 5.46877 137.178 5.8469C137.906 6.68724 138.281 7.77741 138.224 8.88865V16.7747H135.886V9.19282C135.907 8.8663 135.863 8.53877 135.757 8.22931C135.651 7.91986 135.485 7.63465 135.268 7.39031C134.804 6.97464 134.204 6.74484 133.582 6.74484C132.96 6.74484 132.359 6.97464 131.896 7.39031C131.448 7.92807 131.222 8.61753 131.266 9.31675V16.7859H128.906Z" fill="white"/>
<path d="M146.384 17C145.511 17.0218 144.646 16.8284 143.866 16.4367C143.17 16.0784 142.595 15.5218 142.214 14.837C141.799 14.0909 141.593 13.2461 141.618 12.3923V9.33928C141.593 8.49763 141.795 7.66482 142.202 6.92842C142.584 6.24265 143.164 5.68885 143.866 5.33995C144.645 4.9444 145.51 4.74708 146.384 4.76539C147.261 4.74191 148.131 4.93945 148.912 5.33995C149.627 5.68324 150.219 6.23759 150.61 6.92842C151.008 7.66787 151.206 8.49922 151.183 9.33928V11.446H143.866V12.3923C143.818 13.1183 144.056 13.8341 144.529 14.3863C144.78 14.6252 145.077 14.8096 145.401 14.9278C145.726 15.0461 146.072 15.0957 146.417 15.0735C146.983 15.0967 147.544 14.9724 148.047 14.713C148.244 14.6082 148.416 14.4609 148.55 14.2817C148.684 14.1026 148.777 13.8959 148.823 13.6766H151.07C150.993 14.1612 150.814 14.624 150.547 15.0354C150.28 15.4467 149.93 15.7974 149.519 16.0649C148.596 16.6938 147.5 17.0204 146.384 17ZM148.912 10.049V9.31675C148.957 8.59494 148.728 7.88287 148.272 7.32272C147.753 6.86565 147.086 6.61357 146.395 6.61357C145.704 6.61357 145.037 6.86565 144.518 7.32272C144.051 7.88647 143.818 8.60823 143.866 9.33928V9.88004H149.092L148.912 10.049Z" fill="white"/>
<path d="M159.219 17C158.604 17.0304 157.989 16.9375 157.41 16.7266C156.831 16.5158 156.3 16.1912 155.847 15.772C155.414 15.3269 155.078 14.7969 154.86 14.2153C154.641 13.6337 154.545 13.013 154.577 12.3923V4.97946H156.892V12.3923C156.854 13.0786 157.075 13.7542 157.511 14.285C157.733 14.5133 158.002 14.6916 158.298 14.8082C158.594 14.9247 158.912 14.9768 159.23 14.9609C159.552 14.98 159.874 14.9295 160.175 14.8129C160.475 14.6963 160.747 14.5162 160.972 14.285C161.421 13.7611 161.647 13.0815 161.602 12.3923V4.97946H163.917V12.3923C163.949 13.013 163.853 13.6337 163.635 14.2153C163.416 14.7969 163.08 15.3269 162.647 15.772C162.185 16.194 161.644 16.5198 161.056 16.7306C160.467 16.9414 159.843 17.0329 159.219 17Z" fill="white"/>
<path d="M171.684 16.9887C170.914 17.0056 170.149 16.8638 169.436 16.5719C168.843 16.3368 168.323 15.948 167.93 15.4453C167.562 14.9504 167.343 14.36 167.3 13.7442H169.616C169.646 13.9353 169.717 14.1177 169.823 14.279C169.93 14.4403 170.07 14.5768 170.234 14.6793C170.662 14.9319 171.154 15.0533 171.65 15.0285H172.572C173.146 15.0917 173.725 14.9566 174.213 14.6455C174.385 14.5138 174.524 14.343 174.617 14.1472C174.711 13.9514 174.757 13.736 174.752 13.5189C174.768 13.306 174.732 13.0925 174.648 12.8964C174.564 12.7003 174.434 12.5274 174.269 12.3923C173.85 12.0886 173.356 11.9055 172.841 11.8628L171.324 11.6262C170.313 11.5127 169.353 11.123 168.548 10.4997C168.238 10.2005 167.997 9.83635 167.844 9.43321C167.69 9.03008 167.627 8.59793 167.66 8.16766C167.627 7.69398 167.703 7.21904 167.882 6.77953C168.062 6.34002 168.339 5.9477 168.694 5.63287C169.602 4.97603 170.713 4.66093 171.83 4.74288H172.65C173.698 4.69034 174.734 4.98749 175.595 5.58781C175.948 5.85567 176.241 6.19443 176.456 6.58241C176.671 6.97039 176.803 7.39905 176.843 7.84096H174.539C174.506 7.66986 174.438 7.50745 174.339 7.36397C174.24 7.22049 174.113 7.09904 173.965 7.00729C173.56 6.79987 173.103 6.71383 172.65 6.75945H171.83C171.314 6.71984 170.799 6.8547 170.369 7.14248C170.209 7.28105 170.085 7.45516 170.005 7.65082C169.925 7.84648 169.891 8.05823 169.908 8.26906C169.892 8.45134 169.92 8.63483 169.991 8.80364C170.061 8.97245 170.172 9.1215 170.312 9.23791C170.692 9.49079 171.129 9.6456 171.583 9.68854L173.145 9.94765C174.208 10.03 175.223 10.4215 176.067 11.0742C176.387 11.3802 176.636 11.7525 176.797 12.165C176.958 12.5776 177.027 13.0204 177 13.4626C177.024 13.9603 176.936 14.457 176.741 14.9155C176.546 15.374 176.251 15.7824 175.876 16.11C174.925 16.8077 173.758 17.1432 172.583 17.0563L171.684 16.9887Z" fill="white"/>
</g>
<defs>
<clipPath id="clip0_107_99">
<rect width="177" height="17" fill="white"/>
</clipPath>
</defs>
</svg>
